<svg width="50" height="66" viewBox="0 0 50 66" fill="none" xmlns="http://www.w3.org/2000/svg">
<path d="M24.9999 65.0833C20.5266 61.2434 16.3802 57.0338 12.6041 52.4984C6.93747 45.6874 0.208316 35.5439 0.208316 25.878C0.205859 20.9415 1.65865 16.1153 4.38284 12.0101C7.10703 7.90485 10.9802 4.70517 15.5121 2.81597C20.044 0.926772 25.0309 0.432975 29.8418 1.39708C34.6526 2.36118 39.0712 4.73983 42.5382 8.23202C44.8465 10.5446 46.6761 13.295 47.9211 16.3239C49.1662 19.3528 49.8019 22.6002 49.7915 25.878C49.7915 35.5439 43.0624 45.6874 37.3957 52.4984C33.6196 57.0338 29.4732 61.2434 24.9999 65.0833ZM24.9999 15.1856C22.182 15.1856 19.4795 16.3121 17.4869 18.3173C15.4944 20.3225 14.3749 23.0422 14.3749 25.878C14.3749 28.7138 15.4944 31.4334 17.4869 33.4386C19.4795 35.4438 22.182 36.5703 24.9999 36.5703C27.8178 36.5703 30.5203 35.4438 32.5129 33.4386C34.5055 31.4334 35.6249 28.7138 35.6249 25.878C35.6249 23.0422 34.5055 20.3225 32.5129 18.3173C30.5203 16.3121 27.8178 15.1856 24.9999 15.1856Z" fill="#009692"/>
</svg>
