<svg width="27" height="27" viewBox="0 0 27 27" fill="none" xmlns="http://www.w3.org/2000/svg">
<path d="M19.4062 11.8125V14.3438C19.4062 15.9102 18.784 17.4125 17.6763 18.5201C16.5687 19.6277 15.0664 20.25 13.5 20.25C11.9336 20.25 10.4313 19.6277 9.32365 18.5201C8.21601 17.4125 7.59375 15.9102 7.59375 14.3438V11.8125H5.90625V14.3438C5.90714 16.211 6.59598 18.0125 7.84115 19.404C9.08633 20.7955 10.8005 21.6794 12.6562 21.8869V23.625H9.28125V25.3125H17.7188V23.625H14.3438V21.8869C16.1995 21.6794 17.9137 20.7955 19.1588 19.404C20.404 18.0125 21.0929 16.211 21.0938 14.3438V11.8125H19.4062Z" fill="black"/>
<path d="M13.5 18.5625C14.6189 18.5625 15.6919 18.118 16.4831 17.3269C17.2743 16.5357 17.7188 15.4626 17.7188 14.3438V5.90625C17.7188 4.78737 17.2743 3.71431 16.4831 2.92314C15.6919 2.13197 14.6189 1.6875 13.5 1.6875C12.3811 1.6875 11.3081 2.13197 10.5169 2.92314C9.72572 3.71431 9.28125 4.78737 9.28125 5.90625V14.3438C9.28125 15.4626 9.72572 16.5357 10.5169 17.3269C11.3081 18.118 12.3811 18.5625 13.5 18.5625Z" fill="#009591"/>
</svg>
