<svg width="21" height="21" viewBox="0 0 21 21" fill="none" xmlns="http://www.w3.org/2000/svg">
<path d="M19.5112 14.3025C18.1275 14.3025 16.7887 14.0775 15.54 13.6725C15.3444 13.6062 15.134 13.5963 14.933 13.6441C14.7321 13.6919 14.5486 13.7953 14.4038 13.9425L12.6375 16.1588C9.45375 14.64 6.4725 11.7712 4.88625 8.475L7.08 6.6075C7.38375 6.2925 7.47375 5.85375 7.35 5.46C6.93375 4.21125 6.72 2.8725 6.72 1.48875C6.72 0.88125 6.21375 0.375 5.60625 0.375H1.71375C1.10625 0.375 0.375 0.645 0.375 1.48875C0.375 11.94 9.07125 20.625 19.5112 20.625C20.31 20.625 20.625 19.9163 20.625 19.2975V15.4163C20.625 14.8088 20.1187 14.3025 19.5112 14.3025Z" fill="black"/>
</svg>
